<svg xmlns="http://www.w3.org/2000/svg" viewBox="0 0 400 560"><defs><linearGradient id="g" x1="0" x2="1"><stop stop-color="#063f36"/><stop offset="1" stop-color="#011f27"/></linearGradient></defs><rect x="120" y="40" width="160" height="80" rx="22" fill="#c89b24"/><path d="M105 110 Q95 140 90 200 L70 480 Q68 520 110 530 H290 Q332 520 330 480 L310 200 Q305 140 295 110Z" fill="url(#g)"/><path d="M250 140 q80 20 40 95 q-30 35-85 15 l15-42 q35 10 42-15 q7-25-20-33z" fill="#f8f6f0" opacity=".95"/><g transform="translate(0 10)"><rect x="70" y="165" width="260" height="210" rx="22" fill="#032d35"/><path d="M82 315 C145 270 205 348 320 288" fill="none" stroke="#d4af37" stroke-width="5"/><path d="M82 330 C150 292 225 365 320 315" fill="none" stroke="#0f6b5d" stroke-width="4"/><text x="200" y="215" text-anchor="middle" fill="#fff" font-family="Arial, sans-serif" font-size="25" font-weight="700" letter-spacing="2">SANAAM</text><text x="200" y="245" text-anchor="middle" fill="#d4af37" font-family="Arial, sans-serif" font-size="13" letter-spacing="3">LUBRICANTS</text><text x="200" y="298" text-anchor="middle" fill="#fff" font-family="Arial, sans-serif" font-size="52" font-weight="800">5W-30</text><text x="95" y="352" fill="#fff" font-family="Arial, sans-serif" font-size="18" font-weight="700">1L</text></g></svg>